<svg width="21" height="13" viewBox="0 0 21 13" fill="none" xmlns="http://www.w3.org/2000/svg">
<path d="M14.2737 0.283751C14.2067 0.360229 14.1535 0.451217 14.1172 0.551468C14.0809 0.651718 14.0622 0.759246 14.0622 0.867849C14.0622 0.976451 14.0809 1.08398 14.1172 1.18423C14.1535 1.28448 14.2067 1.37547 14.2737 1.45195L17.5617 5.23624H0.735803C0.546233 5.23624 0.364427 5.32292 0.23038 5.4772C0.0963332 5.63148 0.0210266 5.84073 0.0210266 6.05892C0.0210266 6.2771 0.0963332 6.48635 0.23038 6.64064C0.364427 6.79492 0.546233 6.88159 0.735803 6.88159H17.5474L14.2737 10.6412C14.1405 10.7953 14.0658 11.0039 14.0658 11.2212C14.0658 11.4385 14.1405 11.647 14.2737 11.8012C14.4076 11.9544 14.5888 12.0404 14.7776 12.0404C14.9664 12.0404 15.1476 11.9544 15.2815 11.8012L19.8275 6.56897C19.8887 6.50141 19.9374 6.4203 19.9706 6.33053C20.0039 6.24076 20.021 6.14417 20.021 6.04658C20.021 5.94898 20.0039 5.8524 19.9706 5.76263C19.9374 5.67285 19.8887 5.59175 19.8275 5.52418L15.2887 0.283751C15.2222 0.206643 15.1432 0.145441 15.0561 0.103675C14.969 0.0619087 14.8755 0.0404053 14.7812 0.0404053C14.6868 0.0404053 14.5934 0.0619087 14.5063 0.103675C14.4192 0.145441 14.3401 0.206643 14.2737 0.283751Z" fill="black"/>
</svg>
