<svg width="21" height="13" viewBox="0 0 21 13" fill="none" xmlns="http://www.w3.org/2000/svg">
<path d="M5.74802 11.7732C5.81524 11.6969 5.86867 11.6061 5.90525 11.506C5.94183 11.4058 5.96082 11.2983 5.96114 11.1897C5.96145 11.0811 5.94308 10.9735 5.90708 10.8732C5.87108 10.7728 5.81817 10.6817 5.7514 10.605L2.47437 6.81124L19.3002 6.85987C19.4897 6.86042 19.6718 6.77427 19.8063 6.62038C19.9408 6.46648 20.0167 6.25745 20.0173 6.03927C20.0179 5.82108 19.9432 5.61162 19.8096 5.45695C19.676 5.30228 19.4945 5.21508 19.3049 5.21453L2.49343 5.16594L5.77796 1.4158C5.91153 1.26205 5.98686 1.05376 5.98748 0.836418C5.98811 0.619081 5.91399 0.410358 5.78131 0.255835C5.64783 0.102225 5.46692 0.0156983 5.27809 0.0151525C5.08925 0.0146067 4.90784 0.100086 4.77348 0.252922L0.212393 5.47196C0.151012 5.53935 0.102093 5.62032 0.0685756 5.71C0.0350581 5.79967 0.0176349 5.89621 0.0173528 5.9938C0.0170707 6.09139 0.0339356 6.18803 0.0669341 6.2779C0.0999326 6.36776 0.148383 6.44901 0.209373 6.51675L4.73304 11.7703C4.79927 11.8476 4.87814 11.909 4.96513 11.951C5.05211 11.993 5.14547 12.0148 5.23983 12.0151C5.33419 12.0154 5.42767 11.9941 5.51489 11.9526C5.60212 11.9111 5.68135 11.8501 5.74802 11.7732Z" fill="black"/>
</svg>
