<svg width="37" height="30" viewBox="0 0 37 30" fill="none" xmlns="http://www.w3.org/2000/svg">
<path d="M1.01539 23.5154C1.63846 22.8866 2.50385 22.5 3.46154 22.5H9.23077V5.19234H34.6154V29.4231H3.46154C1.55193 29.4231 2.6226e-06 27.8712 2.6226e-06 25.9616C2.6226e-06 25.0039 0.38654 24.1385 1.01539 23.5154Z" fill="#ECC19C"/>
<path d="M4.61539 22.5V27.1154H5.76924H6.92308C7.5577 27.1154 8.13462 26.8558 8.55577 26.4404C8.97116 26.0192 9.23077 25.4423 9.23077 24.8077C9.23077 23.5327 8.19808 22.5 6.92308 22.5H4.61539Z" fill="#CF9E76"/>
<path d="M4.76837e-06 4.03846V25.9615C4.76837e-06 25.0038 0.386542 24.1385 1.01539 23.5154C1.63847 22.8865 2.50385 22.5 3.46154 22.5H4.61539H6.92308C8.19808 22.5 9.23077 23.5327 9.23077 24.8077V22.5V15.5769V8.65384V7.5V5.1923V2.88461C9.23077 1.60961 8.19808 0.57692 6.92308 0.57692H3.46154C1.55193 0.57692 4.76837e-06 2.12884 4.76837e-06 4.03846Z" fill="#D3A06C"/>
<path d="M26.5384 7.50002V12.1154L32.3077 8.65386V7.50002H26.5384Z" fill="#FC6E51"/>
<path d="M26.5384 12.1154V19.0385L32.3077 15.5769L26.5384 12.1154Z" fill="#FC6E51"/>
<path d="M26.5384 19.0385V25.9615L32.3077 22.5L26.5384 19.0385Z" fill="#FC6E51"/>
<path d="M6.92305 27.1154H15V25.9615L9.23074 22.5V24.8077C9.23074 25.4423 8.97112 26.0192 8.55574 26.4404C8.13459 26.8558 7.55766 27.1154 6.92305 27.1154Z" fill="#FC6E51"/>
<path d="M9.23074 15.577V22.5L15 19.0385L9.23074 15.577Z" fill="#FC6E51"/>
<path d="M9.23074 8.65387V15.5769L15 12.1154L9.23074 8.65387Z" fill="#FC6E51"/>
<path d="M9.23074 22.5L15 25.9615V19.0385L9.23074 22.5Z" fill="#FF826E"/>
<path d="M9.23074 15.5769L15 19.0385V12.1154L9.23074 15.5769Z" fill="#FF826E"/>
<path d="M9.23074 7.50002V8.65386L15 12.1154V7.50002H9.23074Z" fill="#FF826E"/>
<path d="M15 25.9616V27.1154H17.3077V21.9231V17.3077V12.6923V7.50002H15V12.1154V19.0385V25.9616Z" fill="#FCD770"/>
<path d="M17.3077 21.9231V27.1154H20.7693L17.3077 21.9231Z" fill="#FF826E"/>
<path d="M17.3077 17.3077V21.9231L20.7692 27.1154L24.2308 21.9231V17.3077L20.7692 22.5L17.3077 17.3077Z" fill="#E6E9ED"/>
<path d="M17.3077 12.6923V17.3077L20.7692 12.1154L24.2308 17.3077V12.6923L20.7692 7.50002L17.3077 12.6923Z" fill="#E6E9ED"/>
<path d="M17.3077 7.50002V12.6923L20.7693 7.50002H17.3077Z" fill="#FF826E"/>
<path d="M20.7692 12.1154L17.3077 17.3077L20.7692 22.5L24.2308 17.3077L20.7692 12.1154Z" fill="#FF826E"/>
<path d="M20.7692 18.4615C20.132 18.4615 19.6154 17.945 19.6154 17.3077C19.6154 16.6704 20.132 16.1539 20.7692 16.1539C21.4065 16.1539 21.9231 16.6704 21.9231 17.3077C21.9231 17.945 21.4065 18.4615 20.7692 18.4615Z" fill="#FFC729"/>
<path d="M20.7692 7.50002L24.2308 12.6923V7.50002H20.7692Z" fill="#FF826E"/>
<path d="M24.2308 21.9231L20.7692 27.1154H24.2308V21.9231Z" fill="#FF826E"/>
<path d="M24.2308 21.9231V27.1154H26.5385V25.9616V19.0385V12.1154V7.50002H24.2308V12.6923V17.3077V21.9231Z" fill="#FCD770"/>
<path d="M26.5384 25.9615V27.1154H32.3077V22.5L26.5384 25.9615Z" fill="#FF826E"/>
<path d="M26.5384 12.1154L32.3077 15.5769V8.65387L26.5384 12.1154Z" fill="#FF826E"/>
<path d="M26.5384 19.0385L32.3077 22.5V15.577L26.5384 19.0385Z" fill="#FF826E"/>
<path d="M4.46155 0H7.92309C9.51367 0 10.8077 1.29404 10.8077 2.88462V4.61538H36.1923V30H4.46155C2.23521 30 0.423091 28.1879 0.423091 25.9615V4.03846C0.423091 1.81212 2.23521 0 4.46155 0ZM28.1154 18.0196L32.1862 15.5769L28.1154 13.1342V18.0196ZM28.1154 24.9427L32.1862 22.5L28.1154 20.0573V24.9427ZM28.1154 11.0965L32.7308 8.32731V8.07692H28.1154V11.0965ZM32.7308 9.67269L28.66 12.1154L32.7308 14.5581V9.67269ZM32.7308 16.5958L28.66 19.0385L32.7308 21.4812V16.5958ZM32.7308 23.5188L28.1154 26.2881V26.5385H32.7308V23.5188ZM26.9616 8.07692H25.8077V26.5385H26.9616V8.07692ZM18.8846 15.4021L21.7692 11.0752L24.6539 15.4021V12.8665L21.7692 8.53962L18.8846 12.8665V15.4021ZM19.0012 17.3077L21.7692 21.4598L24.5373 17.3077L21.7692 13.1556L19.0012 17.3077ZM24.6539 19.2133L21.7692 23.5402L18.8846 19.2133V21.7488L21.7692 26.0758L24.6539 21.7488V19.2133ZM18.8846 10.7867L20.6916 8.07692H18.8846V10.7867ZM24.6539 10.7867V8.07692H22.8469L24.6539 10.7867ZM24.6539 23.8287L22.8469 26.5385H24.6539V23.8287ZM18.8846 23.8287V26.5385H20.6916L18.8846 23.8287ZM17.7308 8.07692H16.5769V26.5385H17.7308V8.07692ZM15.4231 13.1342L11.3523 15.5769L15.4231 18.0196V13.1342ZM15.4231 20.0573L11.3523 22.5L15.4231 24.9427V20.0573ZM10.8077 21.4812L14.8785 19.0385L10.8077 16.5958V21.4812ZM10.8077 14.5581L14.8785 12.1154L10.8077 9.67269V14.5581ZM10.8077 8.32731L15.4231 11.0965V8.07692H10.8077V8.32731ZM15.4231 26.2881L10.8077 23.5188V24.8077C10.8077 25.4596 10.5821 26.055 10.2158 26.5385H15.4231V26.2881ZM9.65386 24.8077C9.65386 23.8535 8.87732 23.0769 7.92309 23.0769H6.19232V26.5385H6.76925H7.92309C8.87732 26.5385 9.65386 25.7619 9.65386 24.8077ZM4.46155 28.8462H35.0385V5.76923H10.8077V6.92308H33.8846V27.6923H7.92309H6.76925H5.03848V23.0769H4.46155C2.87098 23.0769 1.57694 24.371 1.57694 25.9615C1.57694 27.5521 2.87098 28.8462 4.46155 28.8462ZM4.46155 21.9231H7.92309C8.57501 21.9231 9.1704 22.1487 9.65386 22.515V2.88462C9.65386 1.93038 8.87732 1.15385 7.92309 1.15385H4.46155C2.87098 1.15385 1.57694 2.44788 1.57694 4.03846V23.141C2.31078 22.3904 3.33194 21.9231 4.46155 21.9231Z" fill="black"/>
<path d="M23.5 17.3077C23.5 18.2619 22.7235 19.0384 21.7693 19.0384C20.815 19.0384 20.0385 18.2619 20.0385 17.3077C20.0385 16.3534 20.815 15.5769 21.7693 15.5769C22.7235 15.5769 23.5 16.3534 23.5 17.3077ZM21.1923 17.3077C21.1923 17.6261 21.4508 17.8846 21.7693 17.8846C22.0877 17.8846 22.3462 17.6261 22.3462 17.3077C22.3462 16.9892 22.0877 16.7308 21.7693 16.7308C21.4508 16.7308 21.1923 16.9892 21.1923 17.3077Z" fill="black"/>
<path d="M2.7308 10.9615H3.88464V12.1154H2.7308V10.9615Z" fill="black"/>
<path d="M4.46155 2.30771H6.19232V3.46155H4.46155C4.14309 3.46155 3.88463 3.72002 3.88463 4.03848V9.80771H2.73078V4.03848C2.73078 3.08425 3.50732 2.30771 4.46155 2.30771Z" fill="black"/>
</svg>
